<svg width="50" height="24" viewBox="0 0 50 24" fill="none" xmlns="http://www.w3.org/2000/svg">
<path d="M44.691 0.152442C41.7637 0.152442 39.3821 2.53398 39.3821 5.46132C39.3821 6.52899 39.7 7.52323 40.2446 8.35653L34.5089 14.0922C33.6755 13.5476 32.6813 13.2298 31.6136 13.2298C30.5073 13.2298 29.479 13.5704 28.6277 14.1517L22.833 8.35614C23.3774 7.52284 23.6951 6.5287 23.6951 5.46122C23.6951 2.53388 21.3135 0.152344 18.3862 0.152344C15.4589 0.152344 13.0773 2.53388 13.0773 5.46122C13.0773 6.5287 13.3951 7.52255 13.9393 8.35585L8.2035 14.0918C7.3703 13.5474 6.37626 13.2298 5.30888 13.2298C2.38154 13.2298 0 15.6114 0 18.5387C0 21.4661 2.38154 23.8476 5.30888 23.8476C8.23621 23.8476 10.6178 21.4661 10.6178 18.5387C10.6178 17.4711 10.2999 16.4768 9.75535 15.6434L15.491 9.90779C16.3244 10.4523 17.3186 10.7702 18.3863 10.7702C19.4539 10.7702 20.4481 10.4523 21.2814 9.90779L27.1082 15.7353C26.5998 16.5496 26.3048 17.5101 26.3048 18.5386C26.3048 21.466 28.6864 23.8475 31.6137 23.8475C34.541 23.8475 36.9226 21.466 36.9226 18.5386C36.9226 17.4712 36.6048 16.4772 36.0606 15.644L41.7965 9.90809C42.6298 10.4524 43.6238 10.7701 44.6911 10.7701C47.6185 10.7701 50 8.38856 50 5.46122C50 2.53379 47.6184 0.152442 44.691 0.152442ZM5.30888 21.6532C3.5915 21.6532 2.19433 20.256 2.19433 18.5387C2.19433 16.8214 3.5915 15.4242 5.30888 15.4242C7.02616 15.4242 8.42342 16.8214 8.42342 18.5387C8.42342 20.256 7.02626 21.6532 5.30888 21.6532ZM18.3863 8.57577C16.669 8.57577 15.2717 7.1786 15.2717 5.46122C15.2717 3.74394 16.6689 2.34668 18.3863 2.34668C20.1037 2.34668 21.5008 3.74384 21.5008 5.46122C21.5008 7.1786 20.1037 8.57577 18.3863 8.57577ZM31.6136 21.6532C29.8963 21.6532 28.4991 20.256 28.4991 18.5386C28.4991 16.8213 29.8962 15.4241 31.6136 15.4241C33.3309 15.4241 34.7282 16.8213 34.7282 18.5386C34.7281 20.256 33.3309 21.6532 31.6136 21.6532ZM44.691 8.57577C42.9737 8.57577 41.5765 7.1786 41.5765 5.46122C41.5765 3.74394 42.9736 2.34668 44.691 2.34668C46.4083 2.34668 47.8056 3.74384 47.8056 5.46122C47.8056 7.1786 46.4083 8.57577 44.691 8.57577Z" fill="#4A4D4E"/>
</svg>
